<?xml version="1.0" encoding="UTF-8" ?>
<svg version="1.1" width="64" height="64" viewBox="0 0 64 64" xmlns="http://www.w3.org/2000/svg" shape-rendering="crispEdges">
<rect x="23" y="24" width="3" height="1" fill="#545499" />
<rect x="26" y="24" width="1" height="6" fill="#3F3F74" />
<rect x="34" y="24" width="3" height="25" fill="#3F3F74" />
<rect x="20" y="25" width="3" height="1" fill="#545499" />
<rect x="23" y="25" width="3" height="8" fill="#3F3F74" />
<rect x="27" y="25" width="1" height="7" fill="#3F3F74" />
<rect x="33" y="25" width="1" height="24" fill="#3F3F74" />
<rect x="37" y="25" width="4" height="5" fill="#3F3F74" />
<rect x="20" y="26" width="1" height="1" fill="#545499" />
<rect x="21" y="26" width="2" height="8" fill="#3F3F74" />
<rect x="28" y="26" width="5" height="4" fill="#3F3F74" />
<rect x="41" y="26" width="1" height="6" fill="#3F3F74" />
<rect x="19" y="27" width="1" height="6" fill="#545499" />
<rect x="20" y="27" width="1" height="7" fill="#3F3F74" />
<rect x="26" y="30" width="1" height="4" fill="#FFFFFF" />
<rect x="28" y="30" width="1" height="4" fill="#FFFFFF" />
<rect x="29" y="30" width="1" height="18" fill="#3F3F74" />
<rect x="30" y="30" width="2" height="1" fill="#FFFFFF" />
<rect x="32" y="30" width="1" height="1" fill="#3F3F74" />
<rect x="37" y="30" width="1" height="3" fill="#3F3F74" />
<rect x="38" y="30" width="1" height="3" fill="#545499" />
<rect x="39" y="30" width="2" height="3" fill="#3F3F74" />
<rect x="30" y="31" width="1" height="3" fill="#FFFFFF" />
<rect x="31" y="31" width="1" height="1" fill="#3F3F74" />
<rect x="32" y="31" width="1" height="3" fill="#FFFFFF" />
<rect x="27" y="32" width="1" height="1" fill="#FFFFFF" />
<rect x="31" y="32" width="1" height="1" fill="#FFFFFF" />
<rect x="24" y="33" width="2" height="16" fill="#3F3F74" />
<rect x="27" y="33" width="1" height="2" fill="#3F3F74" />
<rect x="31" y="33" width="1" height="4" fill="#3F3F74" />
<rect x="37" y="33" width="1" height="16" fill="#34345F" />
<rect x="26" y="34" width="1" height="1" fill="#3F3F74" />
<rect x="28" y="34" width="1" height="1" fill="#3F3F74" />
<rect x="30" y="34" width="1" height="1" fill="#3F3F74" />
<rect x="32" y="34" width="1" height="1" fill="#3F3F74" />
<rect x="26" y="35" width="3" height="1" fill="#FFFFFF" />
<rect x="30" y="35" width="1" height="4" fill="#FFFFFF" />
<rect x="32" y="35" width="1" height="2" fill="#FFFFFF" />
<rect x="26" y="36" width="1" height="3" fill="#FFFFFF" />
<rect x="27" y="36" width="2" height="2" fill="#3F3F74" />
<rect x="23" y="37" width="1" height="6" fill="#3F3F74" />
<rect x="31" y="37" width="1" height="1" fill="#FFFFFF" />
<rect x="32" y="37" width="1" height="1" fill="#3F3F74" />
<rect x="27" y="38" width="2" height="1" fill="#FFFFFF" />
<rect x="31" y="38" width="1" height="5" fill="#3F3F74" />
<rect x="32" y="38" width="1" height="1" fill="#FFFFFF" />
<rect x="26" y="39" width="3" height="2" fill="#3F3F74" />
<rect x="30" y="39" width="1" height="2" fill="#3F3F74" />
<rect x="32" y="39" width="1" height="2" fill="#3F3F74" />
<rect x="26" y="41" width="2" height="1" fill="#FFFFFF" />
<rect x="28" y="41" width="1" height="1" fill="#3F3F74" />
<rect x="30" y="41" width="1" height="4" fill="#FFFFFF" />
<rect x="32" y="41" width="1" height="2" fill="#FFFFFF" />
<rect x="26" y="42" width="1" height="2" fill="#FFFFFF" />
<rect x="27" y="42" width="1" height="2" fill="#3F3F74" />
<rect x="28" y="42" width="1" height="3" fill="#FFFFFF" />
<rect x="23" y="43" width="1" height="6" fill="#545499" />
<rect x="31" y="43" width="1" height="1" fill="#FFFFFF" />
<rect x="32" y="43" width="1" height="1" fill="#3F3F74" />
<rect x="26" y="44" width="1" height="5" fill="#3F3F74" />
<rect x="27" y="44" width="1" height="1" fill="#FFFFFF" />
<rect x="31" y="44" width="1" height="5" fill="#3F3F74" />
<rect x="32" y="44" width="1" height="1" fill="#FFFFFF" />
<rect x="27" y="45" width="2" height="3" fill="#3F3F74" />
<rect x="30" y="45" width="1" height="4" fill="#3F3F74" />
<rect x="32" y="45" width="1" height="4" fill="#3F3F74" />
<rect x="27" y="48" width="1" height="1" fill="#3F3F74" />
<rect x="28" y="48" width="2" height="7" fill="#222034" />
<rect x="24" y="49" width="2" height="1" fill="#302D49" />
<rect x="26" y="49" width="2" height="6" fill="#222034" />
<rect x="30" y="49" width="8" height="6" fill="#222034" />
<rect x="23" y="50" width="2" height="1" fill="#302D49" />
<rect x="25" y="50" width="1" height="6" fill="#222034" />
<rect x="23" y="51" width="1" height="3" fill="#302D49" />
<rect x="24" y="51" width="1" height="4" fill="#222034" />
<rect x="38" y="51" width="1" height="1" fill="#161521" />
<rect x="22" y="52" width="1" height="3" fill="#302D49" />
<rect x="38" y="52" width="1" height="2" fill="#222034" />
<rect x="39" y="52" width="1" height="3" fill="#161521" />
<rect x="23" y="54" width="1" height="1" fill="#222034" />
<rect x="38" y="54" width="1" height="2" fill="#161521" />
<rect x="23" y="55" width="1" height="1" fill="#302D49" />
<rect x="27" y="55" width="1" height="1" fill="#222034" />
<rect x="29" y="55" width="1" height="1" fill="#222034" />
<rect x="31" y="55" width="1" height="1" fill="#222034" />
<rect x="33" y="55" width="1" height="1" fill="#222034" />
<rect x="35" y="55" width="2" height="1" fill="#222034" />
</svg>