<?xml version="1.0" encoding="UTF-8" ?>
<svg version="1.1" width="64" height="64" viewBox="0 0 64 64" xmlns="http://www.w3.org/2000/svg" shape-rendering="crispEdges">
<rect x="18" y="1" width="2" height="1" fill="#5B354F" />
<rect x="20" y="1" width="1" height="5" fill="#45283C" />
<rect x="39" y="1" width="2" height="1" fill="#5B354F" />
<rect x="41" y="1" width="1" height="15" fill="#45283C" />
<rect x="17" y="2" width="2" height="1" fill="#5B354F" />
<rect x="19" y="2" width="1" height="5" fill="#45283C" />
<rect x="21" y="2" width="1" height="3" fill="#45283C" />
<rect x="37" y="2" width="2" height="1" fill="#5B354F" />
<rect x="39" y="2" width="2" height="3" fill="#45283C" />
<rect x="42" y="2" width="1" height="4" fill="#45283C" />
<rect x="15" y="3" width="3" height="1" fill="#5B354F" />
<rect x="18" y="3" width="1" height="10" fill="#45283C" />
<rect x="22" y="3" width="1" height="2" fill="#372230" />
<rect x="36" y="3" width="1" height="2" fill="#5B354F" />
<rect x="37" y="3" width="2" height="1" fill="#45283C" />
<rect x="43" y="3" width="1" height="1" fill="#45283C" />
<rect x="14" y="4" width="3" height="1" fill="#5B354F" />
<rect x="17" y="4" width="1" height="3" fill="#45283C" />
<rect x="26" y="4" width="7" height="3" fill="#45283C" />
<rect x="37" y="4" width="1" height="1" fill="#3E2636" />
<rect x="38" y="4" width="1" height="1" fill="#45283C" />
<rect x="43" y="4" width="1" height="2" fill="#372230" />
<rect x="15" y="5" width="2" height="1" fill="#5B354F" />
<rect x="21" y="5" width="2" height="1" fill="#3E2636" />
<rect x="23" y="5" width="3" height="2" fill="#45283C" />
<rect x="33" y="5" width="4" height="3" fill="#45283C" />
<rect x="37" y="5" width="1" height="1" fill="#372230" />
<rect x="38" y="5" width="2" height="1" fill="#3E2636" />
<rect x="40" y="5" width="1" height="1" fill="#45283C" />
<rect x="16" y="6" width="1" height="1" fill="#5B354F" />
<rect x="20" y="6" width="1" height="1" fill="#3E2636" />
<rect x="21" y="6" width="1" height="1" fill="#372230" />
<rect x="22" y="6" width="1" height="2" fill="#45283C" />
<rect x="37" y="6" width="1" height="3" fill="#45283C" />
<rect x="38" y="6" width="2" height="1" fill="#372230" />
<rect x="40" y="6" width="1" height="1" fill="#3E2636" />
<rect x="42" y="6" width="1" height="1" fill="#372230" />
<rect x="17" y="7" width="1" height="1" fill="#5B354F" />
<rect x="19" y="7" width="1" height="1" fill="#3E2636" />
<rect x="20" y="7" width="1" height="1" fill="#372230" />
<rect x="21" y="7" width="1" height="3" fill="#45283C" />
<rect x="23" y="7" width="3" height="1" fill="#3E2636" />
<rect x="30" y="7" width="3" height="1" fill="#45283C" />
<rect x="38" y="7" width="3" height="3" fill="#45283C" />
<rect x="19" y="8" width="1" height="3" fill="#5B354F" />
<rect x="20" y="8" width="1" height="4" fill="#45283C" />
<rect x="22" y="8" width="3" height="1" fill="#3E2636" />
<rect x="31" y="8" width="1" height="1" fill="#45283C" />
<rect x="32" y="8" width="5" height="1" fill="#3E2636" />
<rect x="22" y="9" width="2" height="1" fill="#3E2636" />
<rect x="34" y="9" width="4" height="1" fill="#3E2636" />
<rect x="21" y="10" width="1" height="2" fill="#3E2636" />
<rect x="36" y="10" width="3" height="1" fill="#3E2636" />
<rect x="39" y="10" width="2" height="1" fill="#45283C" />
<rect x="19" y="11" width="1" height="9" fill="#45283C" />
<rect x="37" y="11" width="3" height="1" fill="#3E2636" />
<rect x="40" y="11" width="1" height="10" fill="#45283C" />
<rect x="39" y="12" width="1" height="2" fill="#3E2636" />
<rect x="39" y="14" width="1" height="6" fill="#45283C" />
<rect x="18" y="18" width="1" height="3" fill="#45283C" />
<rect x="41" y="18" width="1" height="4" fill="#45283C" />
<rect x="17" y="21" width="1" height="1" fill="#45283C" />
<rect x="42" y="22" width="1" height="1" fill="#45283C" />
</svg>